# xmcd
#
# Track frame offsets:
#	150
#	19840
#	42175
#
# Disc length: 843 seconds
#
# Revision: 0
# Processed by: cddbd v1.4PL0 Copyright (c) Steve Scherf et al.
# Submitted via: dBpowerAMP V4.0
#
DISCID=1b034903
DTITLE=Van Morrison - Have I told you lately
DYEAR=1989
DGENRE=Blues
TTITLE0=Have I told you lately
TTITLE1=Contacting my angel
TTITLE2=Irish heartbeat
EXTD=
EXTT0=
EXTT1=
EXTT2=
PLAYORDER=
